<?xml version="1.0" encoding="utf-8"?>
<!-- Generator: Adobe Illustrator 21.0.0, SVG Export Plug-In . SVG Version: 6.00 Build 0)  -->
<svg version="1.1" id="Layer_1" xmlns="http://www.w3.org/2000/svg" xmlns:xlink="http://www.w3.org/1999/xlink" x="0px" y="0px"
	 viewBox="0 0 90.1 25.6" style="enable-background:new 0 0 90.1 25.6;" xml:space="preserve">
<style type="text/css">
	.st0{fill:#D0D4D6;}
	.st1{fill:#E5E5E5;}
	.st2{fill:#A7B2B7;}
</style>
<circle class="st0" cx="10.2" cy="19.1" r="1.3"/>
<circle class="st0" cx="23.3" cy="19.1" r="1.3"/>
<path class="st1" d="M29.6,11.3h-0.1h-1v-0.2c0-0.3-0.2-0.5-0.5-0.5h-2.8v-1c0-0.2-0.2-0.3-0.3-0.3h-5.6c0.1-0.2,0.1-0.4,0.1-0.7
	c0-1.8-1.5-3.3-3.3-3.3c-1.8,0-3.3,1.5-3.3,3.3c0,0.2,0.1,0.5,0.1,0.7H7.3C7.1,9.3,7,9.5,7,9.6v1H5.8C5.3,10.6,5,11,5,11.4v7.2
	c0,0.3,0.3,0.6,0.6,0.6h2.7c0-1.1,0.9-1.9,1.9-1.9s1.9,0.9,1.9,1.9h9.1c0-1.1,0.9-1.9,1.9-1.9c1.1,0,1.9,0.9,1.9,1.9h3
	c0.2,0,0.3-0.1,0.3-0.3v-7.2h0.9c0.1,0,0.2,0.1,0.2,0.2v1.3c0,0.1,0.1,0.2,0.2,0.2s0.2-0.1,0.2-0.2v-1.5v-0.1
	C29.8,11.4,29.7,11.3,29.6,11.3z M9.7,14.2c0,0.1-0.1,0.1-0.1,0.1l-2.4-0.5c-0.1,0-0.1-0.1-0.1-0.1v-2.3c0-0.1,0.1-0.1,0.1-0.1h2.4
	c0.1,0,0.1,0.1,0.1,0.1L9.7,14.2L9.7,14.2z M12.8,15c0,0.1-0.1,0.2-0.3,0.2l-2.2-0.3c-0.1,0-0.2-0.1-0.2-0.2v-3.3
	c0-0.1,0.1-0.2,0.2-0.2h2.2c0.1,0,0.2,0.1,0.2,0.2V15z M16.1,6.7c1.1,0,1.9,0.9,1.9,1.9s-0.9,1.9-1.9,1.9s-1.9-0.9-1.9-1.9
	S15,6.7,16.1,6.7z M18.7,15.1c0,0.1-0.1,0.1-0.1,0.1h-5c-0.1,0-0.1-0.1-0.1-0.1v-3.6c0-0.1,0.1-0.2,0.2-0.2h4.9
	c0.1,0,0.2,0.1,0.2,0.2L18.7,15.1L18.7,15.1z M24.6,15.1c0,0.1-0.1,0.1-0.1,0.1h-5c-0.1,0-0.1-0.1-0.1-0.1v-3.8c0-0.1,0-0.1,0.1-0.1
	h5.1c0.1,0,0.1,0.1,0.1,0.1L24.6,15.1L24.6,15.1z M27.9,15.2h-1.9v-3.3h1.7c0.2,0,0.3,0.1,0.3,0.3V15.2z"/>
<rect x="20.7" y="1.4" transform="matrix(0.676 -0.7369 0.7369 0.676 5.5016 16.9732)" class="st0" width="2.8" height="1.6"/>
<path class="st1" d="M19.1,6.2l2.1-2.3l-0.7-0.7l-2.1,2.3C18.6,5.7,18.9,5.9,19.1,6.2z"/>
<circle class="st2" cx="16.1" cy="8.7" r="0.7"/>
<path class="st1" d="M42.3,17.4c-0.8-0.4-1.5-1-2-1.6c-0.1-0.2-0.4-0.2-0.5,0c-0.2,0.3-0.5,0.6-0.9,1c-0.4,0.4-0.9,0.7-1.3,1
	c-0.1,0.1-0.3,0.1-0.4,0l-0.9-0.9c0.8-0.3,1.5-0.8,2-1.5c0.5-0.7,0.9-1.4,0.9-2.1v-0.7H37v-1.2H43v1.2h-2.3v0.6
	c0,0.7,0.3,1.3,0.8,1.9c0.4,0.5,1,0.8,1.6,1.1c0.2,0.1,0.2,0.3,0.1,0.5l-0.5,0.7C42.6,17.4,42.4,17.4,42.3,17.4z M38.8,21.5v-3.2
	c0-0.2,0.1-0.3,0.3-0.3h0.8c0.2,0,0.3,0.1,0.3,0.3v2c0,0.2,0.1,0.3,0.3,0.3h5.8v1.2h-7.2C38.9,21.8,38.8,21.6,38.8,21.5z M44.8,18.6
	v-3.4c0-0.2-0.1-0.3-0.3-0.3h-1.9v-1.2h1.9c0.2,0,0.3-0.1,0.3-0.3V11c0-0.2,0.1-0.3,0.3-0.3h0.8c0.2,0,0.3,0.1,0.3,0.3v7.5
	c0,0.2-0.1,0.3-0.3,0.3h-0.8C44.9,18.9,44.8,18.7,44.8,18.6z"/>
<path class="st1" d="M56,22.1v-2.3c0-0.2-0.1-0.3-0.3-0.3h-5.5c-0.2,0-0.3-0.1-0.3-0.3v-0.7c0-0.2,0.1-0.3,0.3-0.3H53v-0.9h-4.5V16
	H59v1.2h-4.5v0.9h2.7c0.2,0,0.3,0.1,0.3,0.3v3.2c0,0.2-0.1,0.3-0.3,0.3L56,22.1L56,22.1z M50.1,15v-3.7c0-0.2,0.1-0.3,0.3-0.3h1.1v1
	H56v-1h1.1c0.2,0,0.3,0.1,0.3,0.3V15c0,0.2-0.1,0.3-0.3,0.3h-6.7C50.3,15.3,50.1,15.1,50.1,15z M56,13.2h-4.4v0.9H56V13.2z"/>
<path class="st1" d="M68.9,21.8v-2c0-0.2-0.1-0.3-0.3-0.3h-5.8v-1.2h3.1v-1h-4.2c-0.2,0-0.3-0.1-0.3-0.3v-0.7c0-0.2,0.1-0.3,0.3-0.3
	h9.9c0.2,0,0.3,0.1,0.3,0.3v0.7c0,0.2-0.1,0.3-0.3,0.3h-4.2v1h2.7c0.2,0,0.3,0.1,0.3,0.3v3.2c0,0.2-0.1,0.3-0.3,0.3h-0.8
	C69.1,22.1,68.9,22,68.9,21.8z M71,15.3c-0.1,0.1-0.2,0.1-0.3,0.1c-0.7-0.1-1.4-0.3-2.2-0.6c-0.7-0.3-1.2-0.6-1.6-0.9
	c-0.1-0.1-0.3-0.1-0.4,0c-0.4,0.3-0.9,0.6-1.6,0.9c-0.8,0.2-1.5,0.5-2.3,0.6c-0.1,0-0.2,0-0.3-0.1l-0.6-0.9c0.9,0,1.7-0.1,2.5-0.4
	c0.8-0.3,1.3-0.6,1.6-1h-3.2v-1.2H66v-1h1.5v1h3.3v1.2h-3.2c0.3,0.4,0.9,0.8,1.6,1c0.8,0.3,1.5,0.4,2.4,0.4L71,15.3z"/>
<path class="st1" d="M78.5,19.1c-0.1,0.1-0.3,0.1-0.4,0c-0.3-0.2-0.5-0.5-0.8-0.9c-0.4-0.5-0.7-0.9-0.9-1.2
	c-0.2,0.4-0.4,0.9-0.9,1.5c-0.4,0.4-0.7,0.8-1,1.1c-0.1,0.1-0.3,0.1-0.4,0l-0.6-0.5c-0.1-0.1-0.1-0.4,0-0.5c0.6-0.5,1.1-1.1,1.5-1.7
	c0.4-0.8,0.6-1.6,0.6-2.6v-1c0-0.2-0.1-0.3-0.3-0.3h-1.7v-1.1h5.1V13h-1.4c-0.2,0-0.3,0.1-0.3,0.3v1.1c0,0.8,0.2,1.5,0.6,2.2
	c0.4,0.6,0.8,1.1,1.3,1.5c0.2,0.1,0.2,0.3,0,0.5L78.5,19.1z M79.6,21.5V16c0-0.2-0.1-0.3-0.3-0.3h-1.2v-1.2h1.2
	c0.2,0,0.3-0.1,0.3-0.3v-2.9c0-0.2,0.1-0.3,0.3-0.3h0.8c0.2,0,0.3,0.1,0.3,0.3v10.2c0,0.2-0.1,0.3-0.3,0.3h-0.8
	C79.8,21.8,79.6,21.6,79.6,21.5z M81.9,21.8V11.1c0-0.2,0.1-0.3,0.3-0.3H83c0.2,0,0.3,0.1,0.3,0.3v10.7c0,0.2-0.1,0.3-0.3,0.3h-0.8
	C82,22.1,81.9,22,81.9,21.8z"/>
<g>
	<path class="st2" d="M83.8,6.9c-0.1,0.4-0.2,0.6-0.3,0.9c-0.1,0.3-0.3,0.5-0.5,0.6c-0.2,0.1-0.5,0.3-0.7,0.3
		c-0.3,0.1-0.6,0.1-0.9,0s-0.6-0.2-0.9-0.3c-0.2-0.1-0.4-0.3-0.5-0.5s-0.2-0.5-0.2-0.7c0-0.3,0-0.6,0.1-1s0.2-0.6,0.3-0.9
		c0.1-0.3,0.3-0.5,0.5-0.6c0.2-0.1,0.5-0.3,0.7-0.3c0.3-0.1,0.6-0.1,0.9,0c0.3,0.1,0.6,0.2,0.8,0.3c0.2,0.1,0.4,0.3,0.5,0.5
		c0.1,0.2,0.2,0.5,0.2,0.7C83.8,6.1,83.8,6.5,83.8,6.9z M82.9,6.8c0-0.2,0.1-0.4,0.1-0.6s0-0.4-0.1-0.5c0-0.1-0.1-0.3-0.3-0.4
		c-0.1-0.1-0.3-0.2-0.5-0.2c-0.2,0-0.4,0-0.6,0c-0.1,0-0.3,0.1-0.4,0.2c-0.1,0.1-0.2,0.3-0.3,0.4c-0.1,0.2-0.1,0.3-0.2,0.6
		c0,0.2-0.1,0.4-0.1,0.7c0,0.2,0,0.4,0.1,0.5c0,0.1,0.1,0.3,0.3,0.4C81,7.9,81.2,8,81.4,8.1c0.2,0,0.4,0,0.6,0s0.3-0.1,0.4-0.2
		c0.1-0.1,0.2-0.3,0.3-0.4C82.8,7.1,82.8,6.9,82.9,6.8z"/>
	<path class="st2" d="M86.8,9.6C86.8,9.6,86.8,9.6,86.8,9.6c-0.1,0-0.1,0-0.1,0.1s-0.1,0-0.1,0c-0.1,0-0.1,0-0.2,0
		c-0.1,0-0.1,0-0.2,0c-0.1,0-0.1,0-0.1,0c-0.1,0-0.1,0,0-0.1l0-0.1l0.3-1.7c0-0.1,0-0.2,0-0.4c0-0.1,0-0.2-0.1-0.3
		c0-0.1-0.1-0.1-0.2-0.2c0-0.1-0.1-0.1-0.2-0.1c-0.1,0-0.2,0-0.3,0.1c-0.1,0-0.3,0.1-0.4,0.3l-0.4,1.9l0,0.1l-0.1,0
		c-0.1,0-0.1,0-0.1,0c-0.1,0-0.1,0-0.2,0s-0.1,0-0.2,0c-0.1,0-0.1,0-0.1,0s-0.1,0,0-0.1l0-0.1l0.6-2.9l0-0.1l0.1,0c0,0,0.1,0,0.1,0
		c0.1,0,0.1,0,0.2,0c0.1,0,0.1,0,0.2,0c0.1,0,0.1,0,0.1,0c0,0,0.1,0,0,0.1l0,0.1l-0.1,0.4c0.2-0.1,0.4-0.2,0.6-0.3s0.4,0,0.6,0
		c0.2,0,0.3,0.1,0.4,0.2c0.1,0.1,0.2,0.2,0.3,0.4c0,0.1,0.1,0.3,0.1,0.4c0,0.2,0,0.4,0,0.5L87,9.6L86.8,9.6z"/>
	<path class="st2" d="M89,9.7c0,0.1,0,0.2,0,0.2c0,0.1-0.1,0.1-0.1,0.1c-0.1,0-0.1,0-0.1,0c-0.1,0-0.1,0-0.2,0c-0.1,0-0.2,0-0.2,0
		s-0.1-0.1-0.1-0.1c0-0.1,0-0.1,0-0.1c0-0.1,0-0.1,0-0.2c0-0.1,0-0.2,0-0.2c0-0.1,0.1-0.1,0.1-0.2c0-0.1,0.1,0,0.1,0
		c0.1,0,0.1,0,0.2,0c0.1,0,0.2,0,0.2,0c0.1,0,0.1,0.1,0.1,0.1c0,0.1,0,0.1,0,0.2C88.9,9.5,89,9.6,89,9.7z M89,8.7
		C89,8.7,89,8.8,89,8.7c-0.1,0-0.1,0.1-0.1,0.1s-0.1,0-0.1,0s-0.1,0-0.2,0s-0.1,0-0.2,0c-0.1,0-0.1,0-0.1,0c0,0-0.1,0,0-0.1l0-0.1
		l0.5-3l0-0.1l0.1,0c0.1,0,0.1,0,0.1,0c0.1,0,0.1,0,0.2,0s0.2,0,0.2,0c0.1,0,0.1,0,0.1,0.1c0.1,0,0,0.1,0,0.1l0,0.1L89,8.7z"/>
</g>
<path class="st2" d="M3.3,23c9.1,0,18.1,0,27.2,0c0.7,0,2-1.1,0.7-1.1c-9.1,0-18.1,0-27.2,0C3.3,21.9,2,23,3.3,23L3.3,23z"/>
<path class="st2" d="M1.7,24.8c9,0,18.1,0,27.1,0c0.7,0,2-1.1,0.7-1.1c-9,0-18.1,0-27.1,0C1.7,23.7,0.4,24.8,1.7,24.8L1.7,24.8z"/>
</svg>
